<svg width="80" height="80" viewBox="0 0 80 80" fill="none" xmlns="http://www.w3.org/2000/svg">
<path d="M15.7002 2.55989C46.7342 8.81716 71.1828 33.2658 77.4401 64.2998C78.1216 67.68 78.6025 70.0842 78.6375 72.0109C78.6713 73.8689 78.2865 75.1902 77.2687 76.4337C76.2716 77.6519 74.9592 78.3046 72.87 78.6465C70.7289 78.9969 67.9148 79 64 79L16 79C12.2005 79 9.45146 78.9979 7.35507 78.716C5.28745 78.438 4.00505 77.9045 3.05025 76.9497C2.09545 75.9949 1.56196 74.7125 1.28397 72.6449C1.00212 70.5485 0.999997 67.7995 0.999997 64L0.999999 16C0.999999 12.0851 1.00312 9.2711 1.35349 7.12999C1.69536 5.04083 2.3481 3.72844 3.56631 2.73134C4.80984 1.71351 6.1311 1.32873 7.98907 1.3625C9.91582 1.39751 12.32 1.87836 15.7002 2.55989Z" fill="black" stroke="white" stroke-width="2"/>
</svg>
